<svg width="149" height="28" viewBox="0 0 149 28" fill="none" xmlns="http://www.w3.org/2000/svg">
<path d="M27.4182 0L21.9033 6.94191C21.8006 7.07052 21.7454 7.22989 21.7454 7.39422V22.4C21.7454 25.4931 19.2385 28 16.1454 28H0.727215C0.325794 28 0 27.6742 0 27.2727V23.1273C0 22.7258 0.325794 22.4 0.727215 22.4H1.16357V11.7819H0.727215C0.325794 11.7819 0 11.4561 0 11.0545V6.76357C0 6.36215 0.325794 6.03635 0.727215 6.03635H8.00002V11.7819H6.83632V21.6728C6.83632 22.0742 7.16224 22.4 7.56353 22.4H15.3454C15.7469 22.4 16.0728 22.0742 16.0728 21.6728V18.472C16.0728 18.0197 15.6655 17.6807 15.2196 17.7557C14.408 17.8916 13.6168 18.088 12.8494 18.339C11.1185 18.9047 9.51411 19.7505 8.09017 20.8232C9.22469 19.2538 10.0894 17.4763 10.6153 15.5586C10.9476 14.3499 11.1448 13.0852 11.1898 11.7819H11.2C11.2 12.4298 11.4647 13.0167 11.8931 13.4386C12.168 13.7098 12.6094 13.7112 12.8931 13.4494L14.6939 11.7819L15.672 10.8756L16.0728 10.5047L20.8989 6.03635L27.4182 0Z" fill="#F3F9FB"/>
<path d="M16.0727 6.76358V7.41962C16.0727 7.62242 15.9883 7.81593 15.8392 7.95345L14.6545 9.05016L14.2538 9.42109L13.2756 10.3272L11.9272 11.5759L11.9142 11.5883C11.7796 11.7126 11.6028 11.7819 11.4196 11.7819H9.96362V6.03623H15.3454C15.7469 6.03623 16.0727 6.36216 16.0727 6.76358Z" fill="#FD0054"/>
<path fill-rule="evenodd" clip-rule="evenodd" d="M59 18H39V16H59V18Z" fill="#F3F9FB"/>
<path d="M76.8643 16.6221V12.5H74.9639V23H76.8643V17.6611C76.9372 17.5654 77.0169 17.4788 77.1035 17.4014C77.1947 17.3239 77.2949 17.2578 77.4043 17.2031C77.5228 17.1393 77.6549 17.0915 77.8008 17.0596C77.9466 17.0277 78.1038 17.0117 78.2725 17.0117C78.4912 17.0117 78.6872 17.0413 78.8604 17.1006C79.0335 17.1553 79.1816 17.2419 79.3047 17.3604C79.4277 17.4788 79.5212 17.6338 79.585 17.8252C79.6533 18.0166 79.6875 18.2445 79.6875 18.5088V23H81.5879V18.5225C81.5879 17.9801 81.5218 17.5176 81.3896 17.1348C81.262 16.7474 81.082 16.4307 80.8496 16.1846C80.6172 15.9385 80.3392 15.7585 80.0156 15.6445C79.6921 15.526 79.3366 15.4668 78.9492 15.4668C78.6849 15.4668 78.4342 15.5055 78.1973 15.583C77.9603 15.6605 77.7438 15.7699 77.5479 15.9111C77.4202 16.0023 77.2972 16.1094 77.1787 16.2324C77.0648 16.3509 76.96 16.4808 76.8643 16.6221Z" fill="#F3F9FB"/>
<path d="M83.8779 15.6035V17.1553H85.9834V21.4551H83.8779V23H89.9072V21.4551H87.9043V15.6035H83.8779ZM85.8467 13.71C85.8467 13.8558 85.8717 13.9925 85.9219 14.1201C85.9766 14.2432 86.0518 14.348 86.1475 14.4346C86.2432 14.5257 86.3571 14.5964 86.4893 14.6465C86.626 14.6966 86.7764 14.7217 86.9404 14.7217C87.2777 14.7217 87.5443 14.6283 87.7402 14.4414C87.9408 14.25 88.041 14.0062 88.041 13.71C88.041 13.4137 87.9408 13.1722 87.7402 12.9854C87.5443 12.7939 87.2777 12.6982 86.9404 12.6982C86.7764 12.6982 86.626 12.7233 86.4893 12.7734C86.3571 12.8236 86.2432 12.8919 86.1475 12.9785C86.0518 13.0697 85.9766 13.179 85.9219 13.3066C85.8717 13.4297 85.8467 13.5641 85.8467 13.71Z" fill="#F3F9FB"/>
<path d="M91.582 19.2471V19.3906C91.582 19.9284 91.6481 20.4274 91.7803 20.8877C91.9124 21.3434 92.1038 21.7376 92.3545 22.0703C92.6006 22.403 92.9014 22.665 93.2568 22.8564C93.6169 23.0433 94.0225 23.1367 94.4736 23.1367C94.8883 23.1367 95.2529 23.057 95.5674 22.8975C95.8818 22.738 96.1553 22.5146 96.3877 22.2275L96.4834 23H98.1992V12.5H96.292V16.2666C96.0641 16.0114 95.8021 15.8154 95.5059 15.6787C95.2142 15.5374 94.8747 15.4668 94.4873 15.4668C94.027 15.4668 93.6169 15.5579 93.2568 15.7402C92.9014 15.9225 92.5983 16.18 92.3477 16.5127C92.097 16.8454 91.9056 17.2441 91.7734 17.709C91.6458 18.1738 91.582 18.6865 91.582 19.2471ZM93.4824 19.3906V19.2471C93.4824 18.9372 93.5098 18.6478 93.5645 18.3789C93.6191 18.1055 93.7057 17.8662 93.8242 17.6611C93.9427 17.4606 94.0954 17.3034 94.2822 17.1895C94.4736 17.071 94.7038 17.0117 94.9727 17.0117C95.2962 17.0117 95.5651 17.0824 95.7793 17.2236C95.9935 17.3604 96.1644 17.554 96.292 17.8047V20.7988C96.1644 21.0449 95.9912 21.2386 95.7725 21.3799C95.5583 21.5212 95.2871 21.5918 94.959 21.5918C94.6901 21.5918 94.4622 21.5348 94.2754 21.4209C94.0885 21.307 93.9359 21.1497 93.8174 20.9492C93.6989 20.7533 93.6123 20.5231 93.5576 20.2588C93.5075 19.9899 93.4824 19.7005 93.4824 19.3906Z" fill="#F3F9FB"/>
<path d="M99.9902 19.2471V19.3906C99.9902 19.9284 100.056 20.4274 100.188 20.8877C100.321 21.3434 100.512 21.7376 100.763 22.0703C101.009 22.403 101.31 22.665 101.665 22.8564C102.025 23.0433 102.431 23.1367 102.882 23.1367C103.297 23.1367 103.661 23.057 103.976 22.8975C104.29 22.738 104.563 22.5146 104.796 22.2275L104.892 23H106.607V12.5H104.7V16.2666C104.472 16.0114 104.21 15.8154 103.914 15.6787C103.622 15.5374 103.283 15.4668 102.896 15.4668C102.435 15.4668 102.025 15.5579 101.665 15.7402C101.31 15.9225 101.007 16.18 100.756 16.5127C100.505 16.8454 100.314 17.2441 100.182 17.709C100.054 18.1738 99.9902 18.6865 99.9902 19.2471ZM101.891 19.3906V19.2471C101.891 18.9372 101.918 18.6478 101.973 18.3789C102.027 18.1055 102.114 17.8662 102.232 17.6611C102.351 17.4606 102.504 17.3034 102.69 17.1895C102.882 17.071 103.112 17.0117 103.381 17.0117C103.704 17.0117 103.973 17.0824 104.188 17.2236C104.402 17.3604 104.573 17.554 104.7 17.8047V20.7988C104.573 21.0449 104.399 21.2386 104.181 21.3799C103.966 21.5212 103.695 21.5918 103.367 21.5918C103.098 21.5918 102.87 21.5348 102.684 21.4209C102.497 21.307 102.344 21.1497 102.226 20.9492C102.107 20.7533 102.021 20.5231 101.966 20.2588C101.916 19.9899 101.891 19.7005 101.891 19.3906Z" fill="#F3F9FB"/>
<path d="M112.186 23.1367C112.901 23.1367 113.521 22.9977 114.045 22.7197C114.569 22.4417 114.952 22.1318 115.193 21.79L114.243 20.7646C114.024 21.0472 113.74 21.2591 113.389 21.4004C113.038 21.5417 112.675 21.6123 112.302 21.6123C112.037 21.6123 111.794 21.5713 111.57 21.4893C111.347 21.4072 111.149 21.291 110.976 21.1406C110.807 20.9948 110.673 20.833 110.572 20.6553C110.472 20.473 110.39 20.2337 110.326 19.9375V19.917H115.344V19.1104C115.344 18.568 115.269 18.0736 115.118 17.627C114.968 17.1758 114.749 16.7907 114.462 16.4717C114.17 16.1527 113.815 15.9066 113.396 15.7334C112.981 15.5557 112.507 15.4668 111.974 15.4668C111.459 15.4668 110.982 15.5602 110.545 15.7471C110.107 15.9339 109.729 16.196 109.41 16.5332C109.091 16.8704 108.843 17.2738 108.665 17.7432C108.487 18.208 108.398 18.723 108.398 19.2881V19.5615C108.398 20.0583 108.487 20.5254 108.665 20.9629C108.847 21.3958 109.105 21.7718 109.438 22.0908C109.77 22.4144 110.169 22.6696 110.634 22.8564C111.099 23.0433 111.616 23.1367 112.186 23.1367ZM111.96 17.0049C112.201 17.0049 112.413 17.0436 112.596 17.1211C112.783 17.194 112.94 17.2943 113.067 17.4219C113.195 17.554 113.295 17.709 113.368 17.8867C113.441 18.0645 113.478 18.2536 113.478 18.4541V18.6045H110.36C110.406 18.363 110.474 18.1442 110.565 17.9482C110.657 17.7523 110.771 17.5837 110.907 17.4424C111.039 17.3011 111.194 17.194 111.372 17.1211C111.55 17.0436 111.746 17.0049 111.96 17.0049Z" fill="#F3F9FB"/>
<path d="M118.188 15.6035H116.554V23H118.283V17.4629C118.306 17.4036 118.331 17.349 118.358 17.2988C118.386 17.2487 118.418 17.2054 118.454 17.1689C118.504 17.1188 118.561 17.0801 118.625 17.0527C118.689 17.0254 118.762 17.0117 118.844 17.0117C118.917 17.0117 118.985 17.0231 119.049 17.0459C119.113 17.0641 119.17 17.0983 119.22 17.1484C119.265 17.1986 119.302 17.2692 119.329 17.3604C119.356 17.4515 119.37 17.5677 119.37 17.709V23H121.045V17.5449C121.045 17.4902 121.045 17.4469 121.045 17.415C121.045 17.3831 121.045 17.3626 121.045 17.3535C121.068 17.3034 121.095 17.2601 121.127 17.2236C121.159 17.1826 121.195 17.1462 121.236 17.1143C121.286 17.0824 121.339 17.0573 121.394 17.0391C121.453 17.0208 121.519 17.0117 121.592 17.0117C121.66 17.0117 121.726 17.0231 121.79 17.0459C121.858 17.0641 121.918 17.0983 121.968 17.1484C122.018 17.2031 122.057 17.276 122.084 17.3672C122.116 17.4583 122.132 17.5745 122.132 17.7158V23H123.861V17.7227C123.861 17.3125 123.82 16.9661 123.738 16.6836C123.661 16.3965 123.551 16.1618 123.41 15.9795C123.264 15.8018 123.093 15.6719 122.897 15.5898C122.706 15.5078 122.499 15.4668 122.275 15.4668C122.098 15.4668 121.934 15.4896 121.783 15.5352C121.633 15.5807 121.498 15.6445 121.38 15.7266C121.284 15.7904 121.195 15.8678 121.113 15.959C121.036 16.0456 120.965 16.1436 120.901 16.2529C120.86 16.139 120.81 16.0387 120.751 15.9521C120.696 15.861 120.63 15.7835 120.553 15.7197C120.452 15.6331 120.334 15.5693 120.197 15.5283C120.061 15.4873 119.906 15.4668 119.732 15.4668C119.377 15.4668 119.074 15.5602 118.823 15.7471C118.577 15.9294 118.383 16.18 118.242 16.499L118.188 15.6035Z" fill="#F3F9FB"/>
<path d="M130.034 23H131.962V22.8838C131.866 22.6969 131.793 22.4736 131.743 22.2139C131.693 21.9541 131.668 21.626 131.668 21.2295V18.0576C131.668 17.6292 131.588 17.2533 131.429 16.9297C131.269 16.6016 131.048 16.3304 130.766 16.1162C130.483 15.902 130.148 15.7402 129.761 15.6309C129.378 15.5215 128.963 15.4668 128.517 15.4668C128.02 15.4668 127.578 15.5306 127.19 15.6582C126.808 15.7812 126.484 15.9499 126.22 16.1641C125.951 16.3783 125.746 16.6266 125.604 16.9092C125.468 17.1917 125.399 17.4902 125.399 17.8047H127.3C127.3 17.6725 127.318 17.5518 127.354 17.4424C127.396 17.333 127.457 17.2396 127.539 17.1621C127.63 17.0755 127.749 17.0094 127.895 16.9639C128.04 16.9137 128.214 16.8887 128.414 16.8887C128.642 16.8887 128.84 16.9183 129.009 16.9775C129.182 17.0322 129.326 17.112 129.439 17.2168C129.549 17.3171 129.631 17.4378 129.686 17.5791C129.74 17.7158 129.768 17.8708 129.768 18.0439V18.4814H128.708C128.161 18.4814 127.676 18.5316 127.252 18.6318C126.833 18.7275 126.479 18.8688 126.192 19.0557C125.873 19.2607 125.634 19.5228 125.475 19.8418C125.315 20.1562 125.235 20.5186 125.235 20.9287C125.235 21.2477 125.299 21.5439 125.427 21.8174C125.554 22.0863 125.732 22.3187 125.96 22.5146C126.188 22.7106 126.459 22.8633 126.773 22.9727C127.092 23.082 127.441 23.1367 127.819 23.1367C128.052 23.1367 128.268 23.1139 128.469 23.0684C128.669 23.0273 128.854 22.9681 129.022 22.8906C129.187 22.8177 129.337 22.7311 129.474 22.6309C129.61 22.5306 129.731 22.4235 129.836 22.3096C129.859 22.4417 129.886 22.5671 129.918 22.6855C129.95 22.804 129.989 22.9089 130.034 23ZM128.223 21.667C128.045 21.667 127.888 21.6465 127.751 21.6055C127.619 21.5599 127.507 21.5007 127.416 21.4277C127.325 21.3503 127.254 21.2568 127.204 21.1475C127.159 21.0335 127.136 20.9105 127.136 20.7783C127.136 20.6097 127.168 20.4548 127.231 20.3135C127.295 20.1676 127.393 20.0423 127.525 19.9375C127.658 19.8372 127.828 19.7598 128.038 19.7051C128.248 19.6458 128.501 19.6162 128.797 19.6162H129.768V20.8877C129.713 20.9834 129.638 21.0791 129.542 21.1748C129.446 21.266 129.332 21.348 129.2 21.4209C129.068 21.4938 128.92 21.5531 128.756 21.5986C128.592 21.6442 128.414 21.667 128.223 21.667Z" fill="#F3F9FB"/>
<path d="M139.133 15.4668C138.636 15.4668 138.178 15.5876 137.759 15.8291C137.34 16.0661 136.979 16.3942 136.679 16.8135L136.665 16.6494L136.59 15.6035H134.819V23H136.72V18.5566C136.806 18.347 136.916 18.1647 137.048 18.0098C137.18 17.8548 137.34 17.7272 137.526 17.627C137.681 17.5404 137.857 17.4766 138.053 17.4355C138.253 17.39 138.477 17.3672 138.723 17.3672C138.96 17.3672 139.208 17.3831 139.468 17.415C139.732 17.4424 139.99 17.4857 140.24 17.5449L140.521 15.6514C140.37 15.6058 140.172 15.5648 139.926 15.5283C139.684 15.4873 139.42 15.4668 139.133 15.4668Z" fill="#F3F9FB"/>
<path d="M147.056 23H148.778V15.6035H146.871V20.792C146.812 20.9105 146.741 21.0176 146.659 21.1133C146.577 21.209 146.484 21.291 146.379 21.3594C146.256 21.4368 146.112 21.4961 145.948 21.5371C145.789 21.5781 145.609 21.5986 145.408 21.5986C145.185 21.5986 144.996 21.5713 144.841 21.5166C144.686 21.4619 144.561 21.3708 144.465 21.2432C144.369 21.1201 144.299 20.9561 144.253 20.751C144.212 20.5459 144.191 20.293 144.191 19.9922V15.6035H142.291V19.9785C142.291 20.5391 142.353 21.0199 142.476 21.4209C142.603 21.8174 142.781 22.1432 143.009 22.3984C143.237 22.6582 143.51 22.8473 143.829 22.9658C144.148 23.0843 144.499 23.1436 144.882 23.1436C145.301 23.1436 145.686 23.0387 146.037 22.8291C146.393 22.6195 146.696 22.3301 146.946 21.9609L147.056 23Z" fill="#F3F9FB"/>
</svg>
