<svg width="372" height="163" viewBox="0 0 372 163" fill="none" xmlns="http://www.w3.org/2000/svg">
<path d="M60 133C60 149.569 46.5685 163 30 163C13.4315 163 0 149.569 0 133C0 116.431 13.4315 103 30 103C46.5685 103 60 116.431 60 133Z" fill="#160F30"/>
<path d="M268 30C268 46.5685 254.569 60 238 60C221.431 60 208 46.5685 208 30C208 13.4315 221.431 0 238 0C254.569 0 268 13.4315 268 30Z" fill="#EAE7AF"/>
<path d="M164 30C164 46.5685 150.569 60 134 60C117.431 60 104 46.5685 104 30C104 13.4315 117.431 0 134 0C150.569 0 164 13.4315 164 30Z" fill="#A72693"/>
<path d="M60 30C60 46.5685 46.5685 60 30 60C13.4315 60 0 46.5685 0 30C0 13.4315 13.4315 0 30 0C46.5685 0 60 13.4315 60 30Z" fill="#241663"/>
<path d="M372 30C372 46.5685 358.569 60 342 60C325.431 60 312 46.5685 312 30C312 13.4315 325.431 0 342 0C358.569 0 372 13.4315 372 30Z" fill="white"/>
</svg>
