<svg width="476" height="163" viewBox="0 0 476 163" fill="none" xmlns="http://www.w3.org/2000/svg">
<path d="M60 133C60 149.569 46.5685 163 30 163C13.4315 163 0 149.569 0 133C0 116.431 13.4315 103 30 103C46.5685 103 60 116.431 60 133Z" fill="black"/>
<path fill-rule="evenodd" clip-rule="evenodd" d="M30 161C45.464 161 58 148.464 58 133C58 117.536 45.464 105 30 105C14.536 105 2 117.536 2 133C2 148.464 14.536 161 30 161ZM30 163C46.5685 163 60 149.569 60 133C60 116.431 46.5685 103 30 103C13.4315 103 0 116.431 0 133C0 149.569 13.4315 163 30 163Z" fill="white"/>
<path d="M372 30C372 46.5685 358.569 60 342 60C325.431 60 312 46.5685 312 30C312 13.4315 325.431 0 342 0C358.569 0 372 13.4315 372 30Z" fill="white"/>
<path d="M268 30C268 46.5685 254.569 60 238 60C221.431 60 208 46.5685 208 30C208 13.4315 221.431 0 238 0C254.569 0 268 13.4315 268 30Z" fill="#41444B"/>
<path d="M164 30C164 46.5685 150.569 60 134 60C117.431 60 104 46.5685 104 30C104 13.4315 117.431 0 134 0C150.569 0 164 13.4315 164 30Z" fill="#28303B"/>
<path d="M60 30C60 46.5685 46.5685 60 30 60C13.4315 60 0 46.5685 0 30C0 13.4315 13.4315 0 30 0C46.5685 0 60 13.4315 60 30Z" fill="#08080D"/>
<path fill-rule="evenodd" clip-rule="evenodd" d="M30 58C45.464 58 58 45.464 58 30C58 14.536 45.464 2 30 2C14.536 2 2 14.536 2 30C2 45.464 14.536 58 30 58ZM30 60C46.5685 60 60 46.5685 60 30C60 13.4315 46.5685 0 30 0C13.4315 0 0 13.4315 0 30C0 46.5685 13.4315 60 30 60Z" fill="white"/>
<path d="M476 30C476 46.5685 462.569 60 446 60C429.431 60 416 46.5685 416 30C416 13.4315 429.431 0 446 0C462.569 0 476 13.4315 476 30Z" fill="#FDDB3A"/>
</svg>
