<svg width="164" height="163" viewBox="0 0 164 163" fill="none" xmlns="http://www.w3.org/2000/svg">
<path d="M66 133C66 149.569 52.5685 163 36 163C19.4315 163 6 149.569 6 133C6 116.431 19.4315 103 36 103C52.5685 103 66 116.431 66 133Z" fill="black"/>
<path fill-rule="evenodd" clip-rule="evenodd" d="M36 161C51.464 161 64 148.464 64 133C64 117.536 51.464 105 36 105C20.536 105 8 117.536 8 133C8 148.464 20.536 161 36 161ZM36 163C52.5685 163 66 149.569 66 133C66 116.431 52.5685 103 36 103C19.4315 103 6 116.431 6 133C6 149.569 19.4315 163 36 163Z" fill="white"/>
<path d="M60 30C60 46.5685 46.5685 60 30 60C13.4315 60 0 46.5685 0 30C0 13.4315 13.4315 0 30 0C46.5685 0 60 13.4315 60 30Z" fill="#F7F7F7"/>
<path d="M164 30C164 46.5685 150.569 60 134 60C117.431 60 104 46.5685 104 30C104 13.4315 117.431 0 134 0C150.569 0 164 13.4315 164 30Z" fill="white"/>
</svg>
